<svg xmlns="http://www.w3.org/2000/svg" xmlns:xlink="http://www.w3.org/1999/xlink" version="1.1" x="0px" y="0px" viewBox="0 0 74 92.5" enable-background="new 0 0 74 74" xml:space="preserve"><g><path d="M68,7H36V5h-2v2h-2V5h-2v2h-2V5h-2v2h-2V5h-2v2h-2V5h-2v2h-8c-2.757,0-5,2.243-5,5s2.243,5,5,5h5   c0.347,0,0.668-0.18,0.851-0.474c0.183-0.295,0.199-0.663,0.044-0.973L14.618,13H18v17.289C10.419,33.135,5,40.437,5,49   c0,11.028,8.972,20,20,20s20-8.972,20-20s-8.972-20-20-20c-1.729,0-3.399,0.244-5,0.658V13h2v2h2v-2h2v2h2v-2h2v2h2v-2h2v2h2v-2h2   v-2h-2V9h31v2H44v2h24c0.553,0,1-0.448,1-1V8C69,7.448,68.553,7,68,7z M13,47.586l-4.852-4.852   c0.282-0.755,0.598-1.493,0.975-2.197L14.586,46L13,47.586z M11.586,49L10,50.586l-2.932-2.932c0.07-0.939,0.211-1.857,0.42-2.752   L11.586,49z M8.586,52l-1.097,1.097c-0.199-0.849-0.34-1.718-0.413-2.608L8.586,52z M18,45.414v3.172l-8.877,8.877   c-0.377-0.704-0.693-1.442-0.975-2.197L18,45.414z M18,40.586l-4.981-4.981c0.561-0.502,1.144-0.978,1.765-1.407L18,37.414V40.586z    M18,60.586l-3.216,3.216c-0.62-0.43-1.204-0.905-1.765-1.407L18,57.414V60.586z M18,63.414v2.169   c-0.501-0.212-0.987-0.451-1.463-0.706L18,63.414z M18,34.586l-1.463-1.463c0.476-0.255,0.963-0.494,1.463-0.706V34.586z    M11.605,37.019L17.586,43L16,44.586l-5.802-5.802C10.627,38.163,11.103,37.579,11.605,37.019z M10.198,59.216L18,51.414v3.172   l-6.395,6.395C11.103,60.421,10.627,59.837,10.198,59.216z M40,53.414l1.852,1.852c-0.282,0.755-0.598,1.493-0.975,2.197L38.414,55   L40,53.414z M41.414,52l1.51-1.51c-0.073,0.89-0.214,1.759-0.413,2.608L41.414,52z M42.932,47.654L32,58.586v-3.172l10.511-10.511   C42.721,45.797,42.862,46.715,42.932,47.654z M32,63.414l1.463,1.463c-0.476,0.255-0.963,0.494-1.463,0.706V63.414z M32.414,61   L34,59.414l2.981,2.981c-0.561,0.502-1.144,0.978-1.765,1.407L32.414,61z M32,52.586v-3.172l8.877-8.877   c0.377,0.704,0.693,1.442,0.975,2.197L32,52.586z M32,37.414l3.216-3.216c0.62,0.43,1.204,0.905,1.765,1.407L32,40.586V37.414z    M32,34.586v-2.169c0.501,0.212,0.987,0.451,1.463,0.706L32,34.586z M30,66.279c-0.652,0.189-1.32,0.335-2,0.45V31.271   c0.68,0.115,1.348,0.261,2,0.45V66.279z M38.395,60.981L35.414,58L37,56.414l2.802,2.802   C39.373,59.837,38.897,60.421,38.395,60.981z M39.802,38.784L32,46.586v-3.172l6.395-6.395   C38.897,37.579,39.373,38.163,39.802,38.784z M26,31.051v35.899C25.667,66.968,25.338,67,25,67s-0.667-0.032-1-0.051V31.051   C24.333,31.032,24.662,31,25,31S25.667,31.032,26,31.051z M22,31.271v35.458c-0.68-0.115-1.348-0.261-2-0.45V31.721   C20.652,31.532,21.32,31.386,22,31.271z M9,11v2h3.382l1,2H10c-1.654,0-3-1.346-3-3s1.346-3,3-3h8v2H9z M20,11V9h2v2H20z M24,11V9   h2v2H24z M28,11V9h2v2H28z M34,11h-2V9h2V11z"/><rect x="40" y="11" width="2" height="2"/></g><text x="0" y="89" fill="#000000" font-size="5px" font-weight="bold" font-family="'Helvetica Neue', Helvetica, Arial-Unicode, Arial, Sans-serif">Created by Nack_Thanakorn</text><text x="0" y="94" fill="#000000" font-size="5px" font-weight="bold" font-family="'Helvetica Neue', Helvetica, Arial-Unicode, Arial, Sans-serif">from the Noun Project</text></svg>